<svg xmlns="http://www.w3.org/2000/svg" viewBox="0 0 439.68 114.41"><g id="Layer_2" data-name="Layer 2"><g id="Layer_1_copy_2" data-name="Layer 1 copy 2"><path d="M160.23,93.26v19.82h-2V97.25l-7.06,15.83h-1.47l-7.06-15.77v15.77h-2V93.26h2.13l7.67,17.18,7.67-17.18Z" style="fill:#fff"/><path d="M182.61,93v20.08h-2V93Z" style="fill:#fff"/><path d="M218.12,113.08h-2L205,96.19v16.89h-2V93h2l11.12,16.87V93h2Z" style="fill:#fff"/><path d="M240.5,93v20.08h-2V93Z" style="fill:#fff"/><path d="M280.48,93.26v19.82h-2V97.25l-7.06,15.83h-1.47l-7.07-15.77v15.77h-2V93.26H263l7.67,17.18,7.67-17.18Z" style="fill:#fff"/><path d="M312.49,108.31h-9.14l-1.75,4.77h-2.13l7.33-19.82h2.27l7.29,19.82h-2.12Zm-.61-1.66-4-10.86-4,10.86Z" style="fill:#fff"/><path d="M337.39,111.45h7.21v1.63h-9.22V93h2Z" style="fill:#fff"/><path d="M365.28,93v20.08h-2V93Z" style="fill:#fff"/><path d="M388.25,112.59a5.8,5.8,0,0,1-2.37-1.92,5.09,5.09,0,0,1-.92-2.76h2.13a4,4,0,0,0,1.29,2.57,5.57,5.57,0,0,0,6.59.06,3.37,3.37,0,0,0,1.2-2.66,3.15,3.15,0,0,0-.67-2.08,4,4,0,0,0-1.63-1.18,23.77,23.77,0,0,0-2.7-.84,23.41,23.41,0,0,1-3.19-1.07,5,5,0,0,1-2-1.61,4.7,4.7,0,0,1-.84-2.95,4.93,4.93,0,0,1,.81-2.78,5.36,5.36,0,0,1,2.27-1.91,7.79,7.79,0,0,1,3.36-.69,7,7,0,0,1,4.49,1.37,5.11,5.11,0,0,1,2,3.52h-2.18a3.56,3.56,0,0,0-1.35-2.2,5.36,5.36,0,0,0-6.12,0,3.2,3.2,0,0,0-1.21,2.63,3.05,3.05,0,0,0,.66,2,4.21,4.21,0,0,0,1.66,1.17,24.37,24.37,0,0,0,2.68.87,24.34,24.34,0,0,1,3.16,1.07,5.12,5.12,0,0,1,2,1.63,4.66,4.66,0,0,1,.83,2.93,5.13,5.13,0,0,1-.74,2.67,5.54,5.54,0,0,1-2.21,2,7.39,7.39,0,0,1-3.51.77A8.33,8.33,0,0,1,388.25,112.59Z" style="fill:#fff"/><path d="M429.63,93v1.67h-5.57v18.41h-2V94.67h-5.6V93Z" style="fill:#fff"/><path d="M211.38,3.82V74.16h-9.25V21.71L178.75,74.16h-6.51L148.76,21.61V74.16h-9.25V3.82h10L175.5,62l26-58.14Z" style="fill:#fff"/><path d="M231.2,3.31V74.16H222V3.31Z" style="fill:#fff"/><path d="M243.09,20a34,34,0,0,1,12.76-13,35.16,35.16,0,0,1,17.94-4.68A36.46,36.46,0,0,1,294,8a32.05,32.05,0,0,1,12.6,15.86H295.54A22.25,22.25,0,0,0,287.06,14a24.63,24.63,0,0,0-13.27-3.45A25.88,25.88,0,0,0,260.47,14a24.27,24.27,0,0,0-9.25,9.81,31.54,31.54,0,0,0-3.35,14.89,31.27,31.27,0,0,0,3.35,14.79,24.14,24.14,0,0,0,9.25,9.81,25.79,25.79,0,0,0,13.32,3.46,24.88,24.88,0,0,0,13.27-3.41,21.9,21.9,0,0,0,8.48-9.81h11.08A31.77,31.77,0,0,1,294,69.23a36.68,36.68,0,0,1-20.23,5.54,35.42,35.42,0,0,1-17.94-4.63,33.68,33.68,0,0,1-12.76-12.86,36.94,36.94,0,0,1-4.67-18.6A37.24,37.24,0,0,1,243.09,20Z" style="fill:#fff"/><path d="M352.57,74.16l-16.88-29H324.51v29h-9.25V3.31h22.87A30.33,30.33,0,0,1,351.7,6.05,19.14,19.14,0,0,1,360,13.47a20.71,20.71,0,0,1,2.74,10.68,20.87,20.87,0,0,1-4.22,12.91q-4.22,5.58-12.65,7.42l17.79,29.68ZM324.51,37.77h13.62q7.53,0,11.29-3.71a13.34,13.34,0,0,0,3.76-9.91q0-6.3-3.71-9.76c-2.48-2.3-6.25-3.46-11.34-3.46H324.51Z" style="fill:#fff"/><path d="M386.11,70.25a33.93,33.93,0,0,1-12.86-12.91,37,37,0,0,1-4.73-18.66A37,37,0,0,1,373.25,20,33.93,33.93,0,0,1,386.11,7.12a37.53,37.53,0,0,1,36.08,0A33.67,33.67,0,0,1,435,20a37.17,37.17,0,0,1,4.68,18.7A37.2,37.2,0,0,1,435,57.39a33.74,33.74,0,0,1-12.81,12.86,37.53,37.53,0,0,1-36.08,0Zm31.36-6.87a24.32,24.32,0,0,0,9.35-9.86,31.13,31.13,0,0,0,3.41-14.84,31.08,31.08,0,0,0-3.41-14.89,24.59,24.59,0,0,0-9.3-9.81,27.83,27.83,0,0,0-26.84,0,24.59,24.59,0,0,0-9.3,9.81A31.08,31.08,0,0,0,378,38.68a31.13,31.13,0,0,0,3.4,14.84,24.32,24.32,0,0,0,9.35,9.86,27.56,27.56,0,0,0,26.74,0Z" style="fill:#fff"/><polygon points="107.35 40.75 107.35 0 53.67 24.81 0 0 0 40.75 14.61 40.75 14.61 74.56 0 74.56 0 114.41 53.67 89.6 107.35 114.41 107.35 74.56 92.39 74.56 92.39 40.75 107.35 40.75" style="fill:#009377"/><polygon points="53.67 24.81 107.35 0 107.35 40.75 92.39 40.75 92.39 74.56 107.35 74.56 107.35 114.41 53.67 89.6 53.67 24.81" style="fill:#1dbc9d"/></g></g></svg>